SplineFontDB: 3.2
FontName: HershoMono-Regular
FullName: Hersho Mono Regular
FamilyName: Hersho Mono
Weight: Regular
Copyright: Copyright (c) 2023, Sim Domingo
UComments: "2023-9-4: Created with FontForge (http://fontforge.org)"
Version: 001.000
ItalicAngle: 0
UnderlinePosition: 69
UnderlineWidth: 34
Ascent: 1100
Descent: 240
InvalidEm: 0
LayerCount: 2
Layer: 0 0 "Back" 1
Layer: 1 0 "Fore" 0
HasVMetrics: 1
XUID: [1021 39 -546803219 6476244]
StyleMap: 0x0000
FSType: 0
OS2Version: 0
OS2_WeightWidthSlopeOnly: 0
OS2_UseTypoMetrics: 1
CreationTime: 1693767096
ModificationTime: 315532800
PfmFamily: 17
TTFWeight: 400
TTFWidth: 5
LineGap: 110
VLineGap: 0
OS2TypoAscent: 0
OS2TypoAOffset: 1
OS2TypoDescent: 0
OS2TypoDOffset: 1
OS2TypoLinegap: 110
OS2WinAscent: 0
OS2WinAOffset: 1
OS2WinDescent: 0
OS2WinDOffset: 1
HheadAscent: 0
HheadAOffset: 1
HheadDescent: 0
HheadDOffset: 1
OS2Vendor: 'PfEd'
MarkAttachClasses: 1
DEI: 91125
LangName: 1033
Encoding: Custom
UnicodeInterp: none
NameList: AGL For New Fonts
DisplaySize: -48
AntiAlias: 1
FitToEm: 0
WinInfo: 27 27 9
BeginPrivate: 0
EndPrivate
TeXData: 1 0 0 522190 261095 174063 489685 1048576 174063 783286 444596 497025 792723 393216 433062 380633 303038 157286 324010 404750 52429 2506097 1059062 262144
BeginChars: 266 262

StartChar: o
Encoding: 111 111 0
AltUni2: 0000ba.ffffffff.0
Width: 600
VWidth: 1002
Flags: HW
HStem: 0 130<234 367> 365 119<233 367>
VStem: 100 101<162 333> 398 101<159 333>
LayerCount: 2
Fore
SplineSet
398 246 m 0
 398 315 355 365 300 365 c 0
 245 365 202 315 202 246 c 0
 202 177 248 130 300 130 c 0
 352 130 398 174 398 246 c 0
100 246 m 0
 100 388 184 483 300 483 c 0
 416 483 500 388 500 246 c 0
 500 104 416 0 300 0 c 0
 187 0 100 104 100 246 c 0
EndSplineSet
Validated: 1
EndChar

StartChar: n
Encoding: 110 110 1
Width: 600
VWidth: 1002
Flags: HW
HStem: 0 30G<100 202 398 500> 0 30G<100 202 398 500> 394 93<212 384>
VStem: 100 101<0 347 460 486> 398 101<0 344>
LayerCount: 2
Fore
SplineSet
100 486 m 1xb8
 202 486 l 1
 202 460 l 1
 231 474 285 486 323 486 c 0
 358 486 500 454 500 353 c 2
 500 0 l 1
 398 0 l 1
 398 344 l 1
 398 344 378 394 300 394 c 0
 222 394 202 347 202 347 c 1
 202 0 l 1
 100 0 l 1
 100 162 100 327 100 486 c 1xb8
EndSplineSet
Validated: 1
EndChar

StartChar: h
Encoding: 104 104 2
Width: 600
VWidth: 1002
Flags: HW
HStem: 0 30G<100 202 398 500> 0 30G<100 202 398 500> 382 101<209 393>
VStem: 100 101<0 369 460 802> 398 101<0 367>
LayerCount: 2
Fore
SplineSet
100 802 m 1xb8
 202 802 l 1
 202 460 l 1
 231 474 276 483 314 483 c 0
 352 483 497 457 497 347 c 2
 500 0 l 1
 398 0 l 1
 401 330 l 2
 401 356 363 382 314 382 c 0
 262 382 202 371 202 330 c 2
 202 0 l 1
 100 0 l 1
 100 802 l 1xb8
EndSplineSet
Validated: 1
EndChar

StartChar: i
Encoding: 105 105 4
Width: 600
VWidth: 1002
Flags: HW
HStem: 0 101<346 500> 359 101<100 251> 527 136<230 338>
VStem: 216 133<537 650> 245 255<4 101> 251 98<101 359>
LayerCount: 2
Fore
SplineSet
100 359 m 1xe4
 100 460 l 1
 300 460 l 2
 329 460 349 437 349 408 c 0xe4
 349 182 346 115 346 101 c 1
 500 101 l 1
 500 0 l 1
 297 0 l 2
 268 0 245 23 245 52 c 2xe8
 251 359 l 1
 100 359 l 1xe4
294 663 m 0
 326 657 349 631 349 596 c 0
 349 558 321 527 283 527 c 0
 280 527 271 527 268 527 c 0
 239 533 216 552 216 587 c 0
 216 590 216 590 216 593 c 0xf0
 219 628 248 663 283 663 c 0
 286 663 291 663 294 663 c 0
EndSplineSet
Validated: 1
EndChar

StartChar: j
Encoding: 106 106 5
Width: 600
VWidth: 1002
Flags: HW
HStem: -203 107<229 378> 359 101<320 398> 527 136<381 489>
VStem: 100 107<-75 26> 320 177<359 456> 369 130<536 653> 398 98<-79 359>
LayerCount: 2
Fore
SplineSet
300 -203 m 0xf2
 161 -203 103 -116 100 26 c 1
 207 26 l 1
 207 -32 216 -96 303 -96 c 0
 387 -96 398 -76 398 150 c 0
 398 208 398 275 398 359 c 1xf2
 320 359 l 1
 320 417 320 460 320 460 c 1
 448 460 l 2
 474 460 497 434 497 408 c 0xf8
 497 318 497 244 497 177 c 0
 497 -150 479 -203 300 -203 c 0xf2
445 663 m 0
 477 657 500 628 500 593 c 0
 500 555 471 527 433 527 c 0
 430 527 422 527 419 527 c 0
 387 533 369 555 369 590 c 0
 369 593 369 593 369 596 c 0xf4
 372 634 398 663 433 663 c 0
 436 663 442 663 445 663 c 0
EndSplineSet
Validated: 1
EndChar

StartChar: s
Encoding: 115 115 6
Width: 600
VWidth: 1002
Flags: HW
HStem: 3 78<226 371> 197 84<240 382> 394 87<238 370>
VStem: 100 113<96 145> 118 113<289 384> 387 113<100 187 318 374>
LayerCount: 2
Fore
SplineSet
294 281 m 0xec
 346 281 500 246 500 148 c 0
 500 67 421 3 294 3 c 0
 204 3 100 67 100 145 c 1
 213 145 l 1xf4
 213 104 262 81 294 81 c 0
 340 81 387 110 387 148 c 0
 387 183 355 197 294 197 c 0
 213 197 118 275 118 333 c 0
 118 414 207 480 294 480 c 0
 387 480 500 419 500 318 c 1
 387 318 l 1
 387 373 326 394 294 394 c 0
 256 394 231 365 231 336 c 0
 231 310 256 281 294 281 c 0xec
EndSplineSet
Validated: 1
EndChar

StartChar: v
Encoding: 118 118 7
Width: 600
VWidth: 1002
Flags: HW
HStem: 0 30G<242 356> 0 30G<242 356> 457 29G<100 210 393 500>
VStem: 100 399
LayerCount: 2
Fore
SplineSet
251 0 m 1xb0
 100 486 l 1
 202 486 l 1
 300 145 l 1
 401 480 l 1
 500 480 l 1
 346 0 l 1
 251 0 l 1xb0
EndSplineSet
Validated: 1
EndChar

StartChar: w
Encoding: 119 119 8
Width: 600
VWidth: 1002
Flags: HW
HStem: 0 30G<118 249 362 490> 0 30G<118 249 362 490> 451 29G<34 147 253 347 455 566>
VStem: 34 110<426 480> 459 107<420 480>
LayerCount: 2
Fore
SplineSet
34 480 m 1xb8
 144 480 l 1
 187 136 l 1
 259 480 l 1
 340 480 l 1
 416 136 l 1
 459 480 l 1
 566 480 l 1
 485 0 l 1
 367 0 l 1
 358 43 312 261 303 304 c 1
 297 261 254 43 245 0 c 1
 123 0 l 1
 34 480 l 1xb8
EndSplineSet
Validated: 1
EndChar

StartChar: d
Encoding: 100 100 9
Width: 600
VWidth: 1002
Flags: HW
HStem: 0 130<232 369> 365 119<233 368> 776 29G<401 500>
VStem: 100 101<159 332> 401 98<3 35 163 330 451 805>
LayerCount: 2
Fore
SplineSet
100 246 m 0
 100 385 184 483 300 483 c 0
 338 483 372 471 401 451 c 1
 401 805 l 1
 500 805 l 1
 500 3 l 1
 401 0 l 1
 401 35 l 1
 372 12 338 0 300 0 c 0
 184 0 100 104 100 246 c 0
398 246 m 0
 398 313 358 365 300 365 c 0
 242 365 202 313 202 246 c 0
 202 179 242 130 300 130 c 0
 358 130 398 179 398 246 c 0
EndSplineSet
Validated: 1
EndChar

StartChar: p
Encoding: 112 112 10
Width: 600
VWidth: 1002
Flags: HW
HStem: 0 119<231 368> 350 130<231 368>
VStem: 100 98<-203 29 152 317 449 480> 398 101<149 321>
LayerCount: 2
Fore
SplineSet
500 234 m 0
 500 95 416 0 300 0 c 0
 262 0 228 9 199 29 c 1
 199 -203 l 1
 100 -203 l 1
 100 480 l 1
 199 480 l 1
 199 449 l 1
 228 472 262 480 300 480 c 0
 416 480 500 376 500 234 c 0
202 234 m 0
 202 167 242 119 300 119 c 0
 358 119 398 167 398 234 c 0
 398 301 358 350 300 350 c 0
 242 350 202 301 202 234 c 0
EndSplineSet
Validated: 1
EndChar

StartChar: b
Encoding: 98 98 11
Width: 600
VWidth: 1002
Flags: HW
HStem: 0 130<231 368> 365 119<232 367> 776 29G<100 199>
VStem: 100 98<3 35 163 330 451 805> 398 101<159 332>
LayerCount: 2
Fore
SplineSet
500 246 m 0
 500 104 416 0 300 0 c 0
 262 0 228 12 199 35 c 1
 199 0 l 1
 100 3 l 1
 100 805 l 1
 199 805 l 1
 199 451 l 1
 228 471 262 483 300 483 c 0
 416 483 500 385 500 246 c 0
202 246 m 0
 202 179 242 130 300 130 c 0
 358 130 398 179 398 246 c 0
 398 313 358 365 300 365 c 0
 242 365 202 313 202 246 c 0
EndSplineSet
Validated: 1
EndChar

StartChar: q
Encoding: 113 113 12
Width: 600
VWidth: 1002
Flags: HW
HStem: 0 119<233 368> 353 130<232 369>
VStem: 100 101<151 324> 401 98<-200 32 153 320 449 480>
LayerCount: 2
Fore
SplineSet
100 237 m 0
 100 379 184 483 300 483 c 0
 338 483 372 472 401 449 c 1
 401 483 l 1
 500 480 l 1
 500 -203 l 1
 401 -200 l 1
 401 32 l 1
 372 12 338 0 300 0 c 0
 184 0 100 98 100 237 c 0
398 237 m 0
 398 304 358 353 300 353 c 0
 242 353 202 304 202 237 c 0
 202 170 242 119 300 119 c 0
 358 119 398 170 398 237 c 0
EndSplineSet
Validated: 1
EndChar

StartChar: g
Encoding: 103 103 13
Width: 600
VWidth: 1002
Flags: HW
HStem: -203 104<230 387> -29 29G<100 207> -29 29G<100 207> 0 130<234 367> 365 119<229 360>
VStem: 100 101<-69 0 165 338> 398 101<-81 29 161 326 457 480>
LayerCount: 2
Fore
SplineSet
100 255 m 0x9e
 100 394 184 483 300 483 c 0
 335 483 369 474 398 457 c 1
 398 480 l 1
 500 480 l 1
 500 480 500 379 500 255 c 0
 500 232 500 211 500 191 c 0
 500 -179 494 -203 291 -203 c 0
 143 -203 100 -49 100 0 c 1
 207 0 l 1xce
 207 -64 248 -98 300 -98 c 0
 352 -98 395 -84 395 -38 c 2
 398 29 l 1
 369 12 335 0 300 0 c 0
 184 0 100 113 100 255 c 0x9e
393 255 m 0
 393 310 346 365 300 365 c 0
 242 365 202 322 202 255 c 0
 202 188 242 130 300 130 c 0x9e
 378 130 393 206 393 255 c 0
EndSplineSet
Validated: 1
EndChar

StartChar: e
Encoding: 101 101 14
Width: 600
VWidth: 1002
Flags: HW
HStem: 0 110<246 434> 223 93<210 390> 408 110<239 368>
VStem: 100 110<148 223 315 376> 390 110<315 385>
LayerCount: 2
Fore
SplineSet
300 110 m 0
 335 110 389 122 427 139 c 1
 479 52 l 1
 438 23 364 0 300 0 c 0
 167 0 100 96 100 287 c 0
 100 414 190 518 300 518 c 0
 433 518 500 420 500 223 c 1
 210 223 l 1
 210 171 257 110 300 110 c 0
390 315 m 1
 390 367 349 408 300 408 c 0
 257 408 210 358 210 315 c 1
 390 315 l 1
EndSplineSet
Validated: 1
EndChar

StartChar: c
Encoding: 99 99 15
Width: 600
VWidth: 1002
Flags: HW
HStem: 0 130<240 407> 365 119<240 408>
VStem: 100 107<164 332>
LayerCount: 2
Fore
SplineSet
500 373 m 1025
401 321 m 1025
494 104 m 1
 456 40 392 0 314 0 c 0
 192 0 100 104 100 246 c 0
 100 388 192 483 314 483 c 0
 395 483 462 442 500 373 c 1
 500 373 424 335 401 321 c 1
 381 347 349 365 314 365 c 0
 253 365 207 315 207 246 c 0
 207 177 256 130 314 130 c 0
 343 130 370 139 390 162 c 1
 436 139 445 136 494 104 c 1
EndSplineSet
Validated: 1
EndChar

StartChar: a
Encoding: 97 97 16
AltUni2: 0000aa.ffffffff.0
Width: 600
VWidth: 1002
Flags: HW
HStem: 0 78<219 377> 217 72<215 385> 376 98<218 375>
VStem: 100 101<98 199> 398 101<0 17 99 201 275 351>
LayerCount: 2
Fore
SplineSet
500 341 m 0
 500 321 500 148 500 148 c 1
 500 0 l 1
 398 0 l 1
 398 17 l 1
 369 5 335 0 300 0 c 0
 184 0 100 64 100 148 c 0
 100 232 184 289 300 289 c 0
 338 289 369 284 398 275 c 1
 398 321 l 1
 366 364 329 376 300 376 c 0
 245 376 202 330 199 330 c 2
 158 365 l 1
 135 382 l 1
 135 394 216 475 306 475 c 0
 387 475 497 410 500 341 c 0
300 217 m 0
 236 217 202 185 202 150 c 0
 202 107 248 78 300 78 c 0
 355 78 395 112 395 153 c 0
 395 194 358 217 300 217 c 0
EndSplineSet
Validated: 1
EndChar

StartChar: x
Encoding: 120 120 17
Width: 600
VWidth: 1002
Flags: HW
HStem: 0 30G<100 218> 0 30G<100 218> 457 29G<100 218 384 500>
VStem: 100 399
LayerCount: 2
Fore
SplineSet
248 243 m 1xb0
 100 486 l 1
 202 486 l 1
 300 313 l 1
 401 483 l 1
 500 483 l 1
 346 243 l 1
 500 3 l 1
 401 3 l 1
 300 171 l 1
 202 0 l 1
 100 0 l 1
 248 243 l 1xb0
EndSplineSet
Validated: 1
EndChar

StartChar: y
Encoding: 121 121 18
Width: 600
VWidth: 1002
Flags: HW
HStem: 457 29G<100 210 393 500>
VStem: 100 399
LayerCount: 2
Fore
SplineSet
251 6 m 1
 100 486 l 1
 202 486 l 1
 300 145 l 1
 401 480 l 1
 500 480 l 1
 288 -203 l 1
 190 -203 l 1
 251 6 l 1
EndSplineSet
Validated: 1
EndChar

StartChar: u
Encoding: 117 117 19
Width: 600
VWidth: 1002
Flags: HW
HStem: 0 93<216 388> 457 29G<100 202 398 500>
VStem: 100 101<142 486> 398 101<0 26 139 486>
LayerCount: 2
Fore
SplineSet
500 0 m 1
 398 0 l 1
 398 26 l 1
 369 12 315 0 277 0 c 0
 242 0 100 32 100 133 c 2
 100 486 l 1
 202 486 l 1
 202 142 l 1
 202 142 225 93 303 93 c 0
 381 93 398 139 398 139 c 1
 398 486 l 1
 500 486 l 1
 500 324 500 159 500 0 c 1
EndSplineSet
Validated: 1
EndChar

StartChar: l
Encoding: 108 108 20
Width: 600
VWidth: 1002
Flags: HW
HStem: 671 98<100 135> 787 29G<178 323>
VStem: 257 101<87 718>
LayerCount: 2
Fore
SplineSet
500 136 m 1
 500 35 l 1
 306 -12 l 1
 277 -12 257 9 257 38 c 0
 257 70 257 101 257 130 c 2
 259 718 l 1
 100 671 l 1
 100 770 l 1
 309 816 l 1
 338 816 358 796 358 767 c 0
 358 735 358 706 358 677 c 2
 358 87 l 1
 500 136 l 1
EndSplineSet
Validated: 1
EndChar

StartChar: r
Encoding: 114 114 21
Width: 600
VWidth: 1002
Flags: HW
HStem: 0 30G<100 202> 0 30G<100 202> 388 98<258 400>
VStem: 100 101<0 284 408 486>
LayerCount: 2
Fore
SplineSet
100 486 m 1xb0
 202 486 l 1
 202 408 l 1
 202 408 248 486 329 486 c 0
 416 486 500 379 500 379 c 1
 433 327 l 1
 433 324 l 1
 433 324 384 388 329 388 c 0
 254 388 202 284 202 284 c 1
 202 284 202 185 202 0 c 1
 100 0 l 1
 100 162 100 327 100 486 c 1xb0
EndSplineSet
Validated: 1
EndChar

StartChar: m
Encoding: 109 109 22
Width: 600
VWidth: 1002
Flags: HMW
LayerCount: 2
Fore
SplineSet
100 478 m 1
 167 478 l 1
 167 449 l 1
 167 449 179 480 222 480 c 0
 283 480 303 423 303 423 c 1
 303 423 337 478 395 478 c 0
 464 478 500 400 500 359 c 2
 500 0 l 1
 427 0 l 1
 427 353 l 1
 427 353 424 391 381 391 c 0
 338 391 335 353 335 353 c 1
 335 0 l 1
 262 0 l 1
 262 353 l 2
 262 356 260 391 219 391 c 0
 176 391 176 353 176 353 c 1
 176 0 l 1
 100 0 l 1
 100 478 l 1
EndSplineSet
Validated: 1
EndChar

StartChar: t
Encoding: 116 116 23
Width: 600
VWidth: 1002
Flags: HW
HStem: 0 93<347 500> 353 119<100 245 346 494> 776 29G<245 346>
VStem: 245 101<94 353 472 805>
LayerCount: 2
Fore
SplineSet
387 93 m 0
 425 93 500 93 500 93 c 1
 500 0 l 1
 462 0 467 0 343 0 c 0
 256 0 245 67 245 148 c 0
 245 174 245 203 245 232 c 2
 245 353 l 1
 100 353 l 1
 100 472 l 1
 245 472 l 1
 245 805 l 1
 346 805 l 1
 346 472 l 1
 494 472 l 1
 494 353 l 1
 346 353 l 1
 346 353 346 310 346 232 c 0
 346 229 346 229 346 226 c 0
 346 194 346 167 346 150 c 0
 346 107 349 93 387 93 c 0
EndSplineSet
Validated: 1
EndChar

StartChar: f
Encoding: 102 102 24
Width: 600
VWidth: 1002
Flags: HW
HStem: 376 101<100 167 265 332> 700 104<279 386>
VStem: 167 98<-6 376 478 686> 398 101<564 689>
LayerCount: 2
Fore
SplineSet
500 564 m 1
 398 561 l 1
 398 567 398 570 398 576 c 0
 398 578 398 580 398 581 c 0
 398 641 397 700 332 700 c 0
 268 700 265 634 265 573 c 0
 265 570 265 567 265 564 c 2
 265 478 l 1
 332 478 l 1
 332 376 l 1
 265 376 l 1
 265 -6 l 1
 167 -6 l 1
 167 376 l 1
 100 376 l 1
 100 478 l 1
 167 478 l 1
 167 564 l 2
 167 680 213 805 329 805 c 0
 453 805 500 686 500 564 c 1
EndSplineSet
Validated: 1
EndChar

StartChar: k
Encoding: 107 107 25
Width: 600
VWidth: 1002
Flags: HW
HStem: 0 30G<100 202 386 500> 0 30G<100 202 386 500> 776 29G<100 202>
VStem: 100 101<0 159 275 805>
LayerCount: 2
Fore
SplineSet
100 805 m 1xb0
 202 805 l 1
 202 275 l 1
 381 449 l 1
 500 449 l 1
 358 292 l 1
 500 0 l 1
 401 0 l 1
 283 226 l 1
 199 159 l 1
 202 0 l 1
 100 0 l 1
 100 805 l 1xb0
EndSplineSet
Validated: 1
EndChar

StartChar: z
Encoding: 122 122 26
Width: 600
VWidth: 1002
Flags: HW
HStem: 0 93<242 500> 385 98<100 378>
VStem: 100 399<0 93 385 483>
LayerCount: 2
Fore
SplineSet
100 483 m 1
 500 483 l 1
 500 385 l 1
 242 93 l 1
 500 93 l 1
 500 0 l 1
 100 0 l 1
 100 93 l 1
 378 385 l 1
 100 385 l 1
 100 483 l 1
EndSplineSet
Validated: 1
EndChar

StartChar: H
Encoding: 72 72 27
Width: 600
VWidth: 1002
Flags: HW
HStem: 0 30G<100 204 398 500> 0 30G<100 204 398 500> 382 78<204 398> 776 29G<100 204 398 500>
VStem: 100 104<0 382 460 805> 398 101<0 382 460 805>
LayerCount: 2
Fore
SplineSet
100 805 m 1xbc
 204 805 l 1
 204 460 l 1
 398 460 l 1
 398 805 l 1
 500 805 l 1
 500 0 l 1
 398 0 l 1
 398 382 l 1
 204 382 l 1
 204 0 l 1
 100 0 l 1
 100 805 l 1xbc
EndSplineSet
Validated: 1
EndChar

StartChar: O
Encoding: 79 79 28
Width: 600
VWidth: 1002
Flags: HW
HStem: 0 116<230 367> 697 107<242 363>
VStem: 100 101<166 629> 398 101<164 655>
LayerCount: 2
Fore
SplineSet
398 414 m 0
 398 628 381 697 300 697 c 0
 228 697 202 617 202 420 c 0
 202 417 202 417 202 414 c 0
 202 408 202 405 202 399 c 0
 202 162 216 116 300 116 c 0
 384 116 398 177 398 414 c 0
100 414 m 0
 100 640 184 805 300 805 c 0
 430 805 500 663 500 414 c 0
 500 151 427 0 300 0 c 0
 173 0 100 148 100 414 c 0
EndSplineSet
Validated: 1
EndChar

StartChar: A
Encoding: 65 65 29
Width: 600
VWidth: 1002
Flags: HW
HStem: 0 30G<100 207 383 500> 0 30G<100 207 383 500> 191 84<245 332> 776 29G<223 338>
VStem: 228 104<756 805>
LayerCount: 2
Fore
SplineSet
228 805 m 1xb8
 332 805 l 1
 500 0 l 1
 390 0 l 1
 346 191 l 1
 236 191 l 1
 202 0 l 1
 100 0 l 1
 228 805 l 1xb8
286 686 m 5
 245 275 l 5
 332 275 l 1
 286 686 l 5
EndSplineSet
Validated: 1
EndChar

StartChar: E
Encoding: 69 69 30
Width: 600
VWidth: 1002
Flags: HW
HStem: 0 101<204 500> 370 90<204 372> 709 96<204 500>
VStem: 100 104<101 370 460 709>
LayerCount: 2
Fore
SplineSet
500 805 m 1
 500 709 l 1
 204 709 l 1
 204 460 l 1
 372 460 l 1
 372 370 l 1
 204 370 l 1
 204 101 l 1
 500 101 l 1
 500 0 l 1
 100 0 l 1
 100 805 l 1
 500 805 l 1
EndSplineSet
Validated: 1
EndChar

StartChar: S
Encoding: 83 83 31
Width: 600
VWidth: 1002
Flags: W
HStem: 0 116<264.249 372.723> 709 96<229.529 339.998>
VStem: 100 110<555.574 690.877> 393 107<129.437 292.016>
LayerCount: 2
Fore
SplineSet
491 590 m 1
 381 590 l 1
 381 590 360 709 288 709 c 0
 253 709 210 683 210 628 c 0
 210 486 500 443 500 229 c 0
 500 145 457 0 312 0 c 0
 127 0 109 237 109 237 c 1
 228 237 l 1
 228 237 233 116 320 116 c 2
 323 116 l 2
 387 116 393 182 393 214 c 0
 393 226 393 232 393 232 c 2
 393 345 100 414 100 605 c 0
 100 712 193 805 297 805 c 0
 456 805 491 590 491 590 c 1
EndSplineSet
Validated: 1
EndChar

StartChar: I
Encoding: 73 73 32
Width: 600
VWidth: 1002
Flags: HW
HStem: 0 93<100 248 358 500> 712 93<100 248 358 500>
VStem: 248 110<93 712>
LayerCount: 2
Fore
SplineSet
100 805 m 1
 500 805 l 1
 500 712 l 1
 358 712 l 1
 358 93 l 1
 500 93 l 1
 500 0 l 1
 100 0 l 1
 100 93 l 1
 248 93 l 1
 248 712 l 1
 100 712 l 1
 100 805 l 1
EndSplineSet
Validated: 1
EndChar

StartChar: N
Encoding: 78 78 33
Width: 600
VWidth: 1002
Flags: HW
HStem: 0 30G<100 204 388 500> 0 30G<100 204 388 500> 776 29G<100 215 398 500>
VStem: 100 104<0 556> 398 101<260 805>
LayerCount: 2
Fore
SplineSet
100 805 m 1xb8
 204 805 l 1
 398 260 l 1
 398 805 l 1
 500 805 l 1
 500 0 l 1
 398 0 l 1
 204 556 l 1
 204 0 l 1
 100 0 l 1
 100 805 l 1xb8
EndSplineSet
Validated: 1
EndChar

StartChar: L
Encoding: 76 76 34
Width: 600
VWidth: 1002
Flags: HW
HStem: 0 101<204 500> 776 29G<100 204>
VStem: 100 104<101 805>
LayerCount: 2
Fore
SplineSet
204 805 m 1
 204 101 l 1
 500 101 l 1
 500 0 l 1
 100 0 l 1
 100 805 l 1
 204 805 l 1
EndSplineSet
Validated: 1
EndChar

StartChar: Z
Encoding: 90 90 35
Width: 600
VWidth: 1002
Flags: HW
HStem: 0 104<213 500> 700 104<100 387>
VStem: 100 399<0 104 700 805>
LayerCount: 2
Fore
SplineSet
100 0 m 1
 100 104 l 1
 387 700 l 1
 100 700 l 1
 100 805 l 1
 500 805 l 1
 500 700 l 1
 213 104 l 1
 500 104 l 1
 500 0 l 1
 100 0 l 1
EndSplineSet
Validated: 1
EndChar

StartChar: V
Encoding: 86 86 36
Width: 600
VWidth: 1002
Flags: HW
HStem: 0 30G<245 352> 0 30G<245 352> 776 29G<100 206 397 500>
VStem: 100 101<750 805> 401 98<751 805>
LayerCount: 2
Fore
SplineSet
251 0 m 1xb8
 100 805 l 1
 202 805 l 1
 300 145 l 1
 401 805 l 1
 500 805 l 1
 346 0 l 1
 251 0 l 1xb8
EndSplineSet
Validated: 1
EndChar

StartChar: P
Encoding: 80 80 37
Width: 600
VWidth: 1002
Flags: HW
HStem: 0 30G<100 204> 0 30G<100 204> 370 84<207 359> 700 101<207 367>
VStem: 100 104<0 370 454 700> 407 93<501 661>
LayerCount: 2
Fore
SplineSet
340 370 m 0xbc
 224 370 204 370 204 370 c 1
 204 0 l 1
 100 0 l 1
 100 802 l 1
 100 802 184 802 340 802 c 0
 421 802 500 695 500 585 c 0
 500 478 421 370 340 370 c 0xbc
207 700 m 1
 207 454 l 1
 230 454 239 454 291 454 c 0
 349 454 407 518 407 585 c 0
 407 649 352 700 291 700 c 0
 245 700 250 700 207 700 c 1
EndSplineSet
Validated: 1
EndChar

StartChar: T
Encoding: 84 84 38
Width: 600
VWidth: 1002
Flags: HW
HStem: 0 30G<248 358> 0 30G<248 358> 712 93<100 248 358 500>
VStem: 248 110<0 712>
LayerCount: 2
Fore
SplineSet
100 805 m 1xb0
 500 805 l 1
 500 712 l 1
 358 712 l 1
 358 475 358 237 358 0 c 1
 248 0 l 1
 248 712 l 1
 100 712 l 1
 100 805 l 1xb0
EndSplineSet
Validated: 1
EndChar

StartChar: M
Encoding: 77 77 39
Width: 600
VWidth: 1002
Flags: HW
HStem: 0 30G<100 204 398 500> 0 30G<100 204 398 500> 776 29G<100 212 388 500>
VStem: 100 104<0 564> 398 101<0 564>
LayerCount: 2
Fore
SplineSet
100 805 m 1xb8
 202 805 l 1
 300 518 l 1
 398 805 l 1
 500 805 l 1
 500 0 l 1
 398 0 l 1
 398 564 l 1
 303 324 l 1
 204 564 l 1
 204 0 l 1
 100 0 l 1
 100 805 l 1xb8
EndSplineSet
Validated: 1
EndChar

StartChar: F
Encoding: 70 70 40
Width: 600
VWidth: 1002
Flags: HW
HStem: 0 30G<100 204> 0 30G<100 204> 370 90<204 372> 709 96<204 500>
VStem: 100 104<0 370 460 709>
LayerCount: 2
Fore
SplineSet
500 805 m 1xb8
 500 709 l 1
 204 709 l 1
 204 460 l 1
 372 460 l 1
 372 370 l 1
 204 370 l 1
 204 0 l 1
 100 0 l 1
 100 805 l 1
 500 805 l 1xb8
EndSplineSet
Validated: 1
EndChar

StartChar: X
Encoding: 88 88 41
Width: 600
VWidth: 1002
Flags: HW
HStem: 0 30G<100 213 389 500> 0 30G<100 213 389 500> 776 29G<100 212 391 500>
VStem: 100 399
LayerCount: 2
Fore
SplineSet
254 425 m 1xb0
 100 805 l 1
 202 805 l 1
 303 524 l 1
 401 805 l 1
 500 805 l 1
 343 425 l 1
 500 0 l 1
 398 0 l 1
 294 313 l 1
 204 0 l 1
 100 0 l 1
 254 425 l 1xb0
EndSplineSet
Validated: 1
EndChar

StartChar: Y
Encoding: 89 89 42
Width: 600
VWidth: 1002
Flags: HW
HStem: 0 30G<254 346> 0 30G<254 346> 776 29G<100 210 392 500>
VStem: 254 93<0 402>
LayerCount: 2
Fore
SplineSet
254 402 m 1xb0
 100 805 l 1
 202 805 l 1
 300 475 l 1
 401 805 l 1
 500 805 l 1
 346 402 l 1
 346 0 l 1
 254 0 l 1
 254 402 l 1xb0
EndSplineSet
Validated: 1
EndChar

StartChar: Q
Encoding: 81 81 43
Width: 600
VWidth: 1002
Flags: HW
HStem: 0 116<229 328> 697 107<245 366>
VStem: 100 101<157 619> 398 101<202 656>
LayerCount: 2
Fore
SplineSet
100 382 m 0
 100 637 185 805 312 805 c 0
 431 805 500 666 500 411 c 0
 500 281 483 173 445 101 c 1
 500 0 l 1
 398 0 l 1
 381 26 l 1
 358 9 332 0 300 0 c 0
 173 0 100 145 100 382 c 0
398 399 m 0
 398 636 378 697 309 697 c 0
 231 697 202 620 202 417 c 2
 202 417 202 414 202 411 c 0
 202 408 202 405 202 405 c 2
 202 159 216 116 297 116 c 0
 309 116 320 116 329 119 c 1
 236 281 l 1
 340 281 l 1
 387 200 l 1
 396 243 398 306 398 399 c 0
EndSplineSet
Validated: 1
EndChar

StartChar: U
Encoding: 85 85 44
Width: 600
VWidth: 1002
Flags: HW
HStem: 0 116<236 369> 776 29G<100 199 404 500>
VStem: 100 96<158 805> 410 90<164 805>
LayerCount: 2
Fore
SplineSet
100 805 m 1
 199 805 l 1
 196 683 196 521 196 411 c 0
 196 179 219 116 303 116 c 0
 384 116 410 185 410 411 c 0
 410 561 404 652 404 805 c 1
 500 805 l 1
 500 623 500 339 500 339 c 2
 500 87 448 0 300 0 c 0
 152 0 100 87 100 339 c 2
 100 805 l 1
EndSplineSet
Validated: 1
EndChar

StartChar: R
Encoding: 82 82 45
Width: 600
VWidth: 1002
Flags: HW
HStem: 0 30G<100 204 388 500> 0 30G<100 204 388 500> 370 84<207 268> 700 101<207 367>
VStem: 100 104<0 370 454 700> 407 90<501 661>
LayerCount: 2
Fore
SplineSet
268 370 m 1xbc
 204 370 l 1
 204 0 l 1
 100 0 l 1
 100 802 l 1
 100 802 184 802 340 802 c 0
 421 802 497 695 497 585 c 0
 497 492 438 399 369 376 c 1
 500 0 l 1
 398 0 l 1
 268 370 l 1xbc
207 700 m 1
 207 454 l 1
 230 454 239 454 291 454 c 0
 349 454 407 518 407 585 c 0
 407 649 352 700 291 700 c 0
 245 700 250 700 207 700 c 1
EndSplineSet
Validated: 1
EndChar

StartChar: D
Encoding: 68 68 46
Width: 600
VWidth: 1002
Flags: HW
HStem: 0 87<207 311> 697 104<207 314>
VStem: 100 107<87 697> 407 93<233 569>
LayerCount: 2
Fore
SplineSet
303 0 m 2
 100 0 l 1
 100 802 l 1
 100 802 147 802 303 802 c 0
 384 802 500 622 500 399 c 0
 500 196 384 0 303 0 c 2
207 697 m 1
 207 87 l 1
 230 87 257 87 257 87 c 2
 315 87 407 228 407 399 c 0
 407 578 318 697 257 697 c 0
 211 697 250 697 207 697 c 1
EndSplineSet
Validated: 1
EndChar

StartChar: K
Encoding: 75 75 47
Width: 600
VWidth: 1002
Flags: HW
HStem: 0 30G<100 204 370 497> 0 30G<100 204 370 497> 776 29G<100 204 371 500>
VStem: 100 104<0 243 556 805>
LayerCount: 2
Fore
SplineSet
204 243 m 1xb0
 204 0 l 1
 100 0 l 1
 100 805 l 1
 204 805 l 1
 204 556 l 1
 393 805 l 1
 500 805 l 1
 204 402 l 1
 497 0 l 1
 393 0 l 1
 204 243 l 1xb0
EndSplineSet
Validated: 1
EndChar

StartChar: B
Encoding: 66 66 48
Width: 600
VWidth: 1002
Flags: HW
HStem: 0 84<204 358> 333 122<207 362> 700 101<207 368>
VStem: 100 104<84 333 454 700> 404 93<130 295 497 664>
LayerCount: 2
Fore
SplineSet
204 333 m 1
 204 84 l 1
 227 84 239 84 291 84 c 0
 349 84 404 147 404 214 c 0
 404 278 352 333 291 333 c 0
 245 333 247 333 204 333 c 1
207 700 m 1
 207 454 l 1
 230 454 239 454 291 454 c 0
 349 454 407 518 407 585 c 0
 407 649 352 700 291 700 c 0
 245 700 250 700 207 700 c 1
416 399 m 1
 465 358 497 286 497 214 c 0
 497 107 448 0 338 0 c 2
 100 0 l 1
 100 802 l 1
 100 802 184 802 340 802 c 0
 441 802 500 692 500 585 c 0
 500 513 465 437 416 399 c 1
EndSplineSet
Validated: 1
EndChar

StartChar: C
Encoding: 67 67 49
Width: 600
VWidth: 1002
Flags: HW
HStem: 0 119<243 389> 697 107<245 383>
VStem: 100 101<164 629> 398 101<128 229 590 682>
LayerCount: 2
Fore
SplineSet
497 590 m 1
 395 564 l 1
 395 677 384 697 303 697 c 0
 231 697 202 616 202 399 c 0
 202 194 231 119 303 119 c 0
 393 119 398 128 398 255 c 1
 500 229 l 1
 500 61 448 0 300 0 c 0
 173 0 100 148 100 414 c 0
 100 640 187 805 303 805 c 0
 442 805 497 740 497 590 c 1
EndSplineSet
Validated: 1
EndChar

StartChar: G
Encoding: 71 71 50
Width: 600
VWidth: 1002
Flags: HW
HStem: 0 119<242 367> 310 78<303 404> 697 107<242 382>
VStem: 100 101<165 646> 404 96<164 310 564 676>
LayerCount: 2
Fore
SplineSet
497 564 m 1
 395 564 l 1
 395 677 381 697 300 697 c 0
 228 697 202 628 202 411 c 0
 202 206 228 119 300 119 c 0
 384 119 401 209 404 310 c 1
 303 310 l 1
 303 388 l 1
 500 388 l 1
 500 211 468 0 297 0 c 0
 170 0 100 148 100 414 c 0
 100 640 167 805 300 805 c 2
 303 805 l 2
 442 805 497 714 497 564 c 1
EndSplineSet
Validated: 1
EndChar

StartChar: J
Encoding: 74 74 51
Width: 600
VWidth: 1002
Flags: HW
HStem: 0 116<234 369> 776 29G<404 500>
VStem: 100 98<156 255> 410 90<164 805>
LayerCount: 2
Fore
SplineSet
100 255 m 1
 199 255 l 1
 211 151 245 116 303 116 c 0
 384 116 410 185 410 411 c 0
 410 561 404 652 404 805 c 1
 500 805 l 1
 500 623 500 339 500 339 c 2
 500 87 448 0 300 0 c 0
 170 0 112 70 100 255 c 1
EndSplineSet
Validated: 1
EndChar

StartChar: W
Encoding: 87 87 52
Width: 600
VWidth: 1002
Flags: HW
HStem: 0 30G<134 239 353 466> 0 30G<134 239 353 466> 776 29G<100 211 397 500>
VStem: 100 110<570 805> 398 101<591 805>
LayerCount: 2
Fore
SplineSet
135 0 m 1xb8
 100 805 l 1
 210 805 l 1
 219 255 l 1
 297 405 l 1
 372 255 l 1
 398 805 l 1
 500 805 l 1
 465 0 l 1
 361 0 l 1
 297 226 l 1
 231 0 l 1
 135 0 l 1xb8
EndSplineSet
Validated: 1
EndChar

StartChar: parenleft
Encoding: 40 40 53
Width: 600
VWidth: 1002
Flags: HW
HStem: -43 90<336.5 450.5> 738 104<327.5 450.5>
VStem: 150 96<169 628>
LayerCount: 2
Fore
SplineSet
378 -43 m 2
 297 -43 150 11 150 399 c 0
 150 784 297 842 378 842 c 2
 450 842 l 1
 450 738 l 1
 447 738 444 738 424 738 c 0
 363 738 246 732 246 399 c 0
 246 69 366 46 424 46 c 2
 450 46 l 1
 450 -43 l 1
 378 -43 l 2
EndSplineSet
Validated: 1
EndChar

StartChar: parenright
Encoding: 41 41 54
Width: 600
VWidth: 1002
Flags: HW
HStem: -43 90<149.5 264.5> 738 104<149.5 273.5>
VStem: 356 96<169 628>
LayerCount: 2
Fore
SplineSet
222 -43 m 2
 150 -43 l 1
 150 46 l 1
 176 46 l 2
 234 46 356 69 356 399 c 0
 356 732 237 738 176 738 c 0
 156 738 153 738 150 738 c 1
 150 842 l 1
 222 842 l 2
 303 842 450 784 450 399 c 0
 450 11 303 -43 222 -43 c 2
EndSplineSet
Validated: 1
EndChar

StartChar: bracketleft
Encoding: 91 91 55
Width: 600
VWidth: 1002
Flags: HW
HStem: -96 98<256.5 450.5> 807 104<260.5 450.5>
VStem: 150 87<77 726>
LayerCount: 2
Fore
SplineSet
378 -96 m 2
 332 -96 309 -98 216 -98 c 0
 161 -98 150 23 150 399 c 0
 150 413 150 426 150 440 c 0
 150 854 152 906 216 906 c 0
 222 906 372 912 378 912 c 2
 450 912 l 1
 450 807 l 1
 447 807 444 807 424 807 c 0
 404 807 323 802 294 802 c 0
 242 802 237 703 237 399 c 0
 237 75 242 3 294 3 c 0
 375 3 389 3 424 3 c 2
 450 3 l 1
 450 -96 l 1
 378 -96 l 2
EndSplineSet
Validated: 1
EndChar

StartChar: bracketright
Encoding: 93 93 56
Width: 600
VWidth: 1002
Flags: HW
HStem: -96 98<149.5 346.5> 807 104<149.5 342.5>
VStem: 364 87<77 726>
LayerCount: 2
Fore
SplineSet
222 -96 m 2
 150 -96 l 1
 150 3 l 1
 176 3 l 2
 211 3 229 3 310 3 c 0
 362 3 364 75 364 399 c 0
 364 703 362 802 310 802 c 0
 281 802 196 807 176 807 c 0
 156 807 153 807 150 807 c 1
 150 912 l 1
 222 912 l 2
 228 912 382 906 388 906 c 0
 450 906 450 857 450 477 c 0
 450 465 450 453 450 440 c 0
 450 426 450 413 450 399 c 0
 450 23 443 -98 388 -98 c 0
 295 -98 268 -96 222 -96 c 2
EndSplineSet
Validated: 1
EndChar

StartChar: backslash
Encoding: 92 92 57
Width: 600
VWidth: 1002
Flags: HW
HStem: 0 30G<371 500> 0 30G<371 500> 776 29G<100 226>
VStem: 100 399
LayerCount: 2
Fore
SplineSet
100 805 m 1xb0
 216 805 l 1
 500 0 l 1
 381 0 l 1
 100 805 l 1xb0
EndSplineSet
Validated: 1
EndChar

StartChar: bar
Encoding: 124 124 58
Width: 600
VWidth: 1002
Flags: HW
VStem: 256 90<-104 906>
LayerCount: 2
Fore
SplineSet
256 906 m 1
 344 906 l 1
 344 570 344 232 344 -104 c 1
 256 -104 l 1
 256 906 l 1
EndSplineSet
Validated: 1
EndChar

StartChar: slash
Encoding: 47 47 59
Width: 600
VWidth: 1002
Flags: HW
HStem: 0 30G<100 232> 0 30G<100 232> 776 29G<374 500>
VStem: 100 399
LayerCount: 2
Fore
SplineSet
500 805 m 1xb0
 222 0 l 1
 100 0 l 1
 384 805 l 1
 500 805 l 1xb0
EndSplineSet
Validated: 1
EndChar

StartChar: exclam
Encoding: 33 33 60
Width: 600
VWidth: 1002
Flags: HW
HStem: 0 191<234 370> 776 29G<244 360>
VStem: 203 194<28 160> 244 116<272 805>
LayerCount: 2
Fore
SplineSet
244 805 m 1xd0
 360 805 l 1
 360 272 l 1
 244 272 l 1
 244 805 l 1xd0
203 93 m 0xe0
 203 142 253 191 302 191 c 0
 351 191 397 145 397 96 c 0
 397 47 351 0 302 0 c 0
 253 0 203 44 203 93 c 0xe0
EndSplineSet
Validated: 1
EndChar

StartChar: one
Encoding: 49 49 61
AltUni2: 0000b9.ffffffff.0
Width: 600
VWidth: 1002
Flags: HW
HStem: 0 93<100 248 358 500> 776 29G<197 358>
VStem: 248 110<93 680>
LayerCount: 2
Fore
SplineSet
100 721 m 1
 248 805 l 1
 358 805 l 1
 358 93 l 1
 500 93 l 1
 500 0 l 1
 100 0 l 1
 100 93 l 1
 248 93 l 1
 248 680 l 1
 100 599 l 1
 100 721 l 1
EndSplineSet
Validated: 1
EndChar

StartChar: two
Encoding: 50 50 62
AltUni2: 0000b2.ffffffff.0
Width: 600
VWidth: 1002
Flags: HW
HStem: 0 104<242 491> 700 104<229 369>
VStem: 100 391<0 104 556 710> 387 113<452 686>
LayerCount: 2
Fore
SplineSet
100 0 m 1xe0
 100 104 l 1xe0
 259 272 387 446 387 576 c 0xd0
 387 695 346 700 303 700 c 0
 242 700 219 654 100 556 c 1
 100 683 l 1xe0
 190 758 222 805 300 805 c 0
 407 805 500 718 500 582 c 0xd0
 500 455 398 301 242 104 c 1
 491 104 l 1
 491 0 l 1
 100 0 l 1xe0
EndSplineSet
Validated: 1
EndChar

StartChar: three
Encoding: 51 51 63
AltUni2: 0000b3.ffffffff.0
Width: 600
VWidth: 1002
Flags: HW
HStem: 0 87<245 373> 700 104<222 376>
VStem: 404 93<119 308 492 671>
LayerCount: 2
Fore
SplineSet
404 402 m 1
 459 356 497 281 497 217 c 0
 497 101 412 0 314 0 c 0
 239 0 149 73 100 174 c 1
 202 174 l 1
 231 122 277 87 312 87 c 0
 361 87 404 141 404 205 c 0
 404 286 358 324 309 408 c 1
 358 477 407 516 407 585 c 0
 407 657 360 700 291 700 c 0
 259 700 222 677 199 642 c 1
 199 642 132 642 100 642 c 1
 100 642 178 805 291 805 c 0
 404 805 500 697 500 567 c 0
 500 515 459 445 404 402 c 1
EndSplineSet
Validated: 1
EndChar

StartChar: four
Encoding: 52 52 64
Width: 600
VWidth: 1002
Flags: HW
HStem: 0 30G<297 407> 0 30G<297 407> 246 101<207 297 404 500> 776 29G<276 404>
VStem: 297 107<0 246 347 593>
LayerCount: 2
Fore
SplineSet
300 347 m 1x38
 300 593 l 1
 207 347 l 1
 300 347 l 1x38
100 255 m 1
 100 347 l 1
 288 805 l 1
 404 805 l 1
 404 347 l 1
 500 347 l 1
 500 246 l 1
 404 246 l 1
 404 226 404 208 404 194 c 0
 404 125 407 84 407 0 c 1
 297 0 l 1xb8
 297 246 l 1
 100 246 l 1
 100 255 l 1
EndSplineSet
Validated: 1
EndChar

StartChar: five
Encoding: 53 53 65
Width: 600
VWidth: 1002
Flags: HW
HStem: 0 124<201 344> 391 127<236 341> 700 104<236 448>
VStem: 132 104<518 700> 381 119<165 352>
LayerCount: 2
Fore
SplineSet
500 263 m 0
 500 133 401 0 277 0 c 0
 181 0 100 104 100 104 c 1
 158 197 l 1
 193 168 216 124 280 124 c 0
 321 124 381 165 381 266 c 0
 381 341 321 391 286 391 c 2
 132 391 l 1
 132 805 l 1
 448 805 l 1
 448 779 448 761 448 747 c 0
 448 721 448 714 448 700 c 1
 431 700 404 700 378 700 c 0
 326 700 265 700 236 700 c 1
 236 518 l 1
 294 518 l 2
 369 518 500 393 500 263 c 0
EndSplineSet
Validated: 1
EndChar

StartChar: seven
Encoding: 55 55 66
Width: 600
VWidth: 1002
Flags: HW
HStem: 0 30G<100 215> 0 30G<100 215> 700 104<100 367>
VStem: 100 399<673 700>
LayerCount: 2
Fore
SplineSet
100 0 m 1xb0
 367 700 l 1
 100 700 l 1
 100 805 l 1
 500 805 l 1
 204 0 l 1
 100 0 l 1xb0
EndSplineSet
Validated: 1
EndChar

StartChar: eight
Encoding: 56 56 67
Width: 600
VWidth: 1002
Flags: HW
HStem: 0 130<234 367> 365 177<241 347> 689 113<244 347>
VStem: 100 101<162 332> 135 96<552 678> 358 96<550 678> 398 101<159 334>
LayerCount: 2
Fore
SplineSet
135 614 m 0xe8
 135 727 201 802 294 802 c 0
 387 802 453 727 453 614 c 0xec
 453 550 430 492 395 457 c 1
 459 419 500 344 500 246 c 0
 500 104 416 0 300 0 c 0
 187 0 100 104 100 246 c 0xf2
 100 339 141 416 199 454 c 1
 161 489 135 545 135 614 c 0xe8
358 614 m 0
 358 660 329 689 294 689 c 0
 259 689 231 657 231 614 c 0
 231 571 259 541 294 541 c 0
 329 541 358 568 358 614 c 0
398 246 m 0xf2
 398 315 355 365 300 365 c 0
 245 365 202 315 202 246 c 0
 202 177 248 130 300 130 c 0
 352 130 398 174 398 246 c 0xf2
EndSplineSet
Validated: 1
EndChar

StartChar: zero
Encoding: 48 48 68
Width: 600
VWidth: 1002
Flags: HW
HStem: 0 116<232 367> 697 107<242 366>
VStem: 100 101<320 629> 398 101<167 502>
LayerCount: 2
Fore
SplineSet
398 509 m 1
 222 162 l 1
 236 127 262 116 300 116 c 0
 384 116 398 177 398 414 c 0
 398 449 398 480 398 509 c 1
378 642 m 1
 364 683 338 697 300 697 c 0
 228 697 202 617 202 420 c 0
 202 417 202 417 202 414 c 0
 202 408 202 405 202 399 c 0
 202 364 204 339 204 313 c 1
 378 642 l 1
100 414 m 0
 100 640 184 805 300 805 c 0
 430 805 500 663 500 414 c 0
 500 151 427 0 300 0 c 0
 173 0 100 148 100 414 c 0
EndSplineSet
Validated: 1
EndChar

StartChar: nine
Encoding: 57 57 69
Width: 600
VWidth: 1002
Flags: HW
HStem: 0 30G<239 320> 0 30G<239 320> 341 98<234 356> 671 133<233 366>
VStem: 100 101<470 643> 398 101<473 637>
LayerCount: 2
Fore
SplineSet
202 556 m 0x3c
 202 487 245 440 300 440 c 0
 355 440 398 487 398 556 c 0
 398 625 352 671 300 671 c 0
 248 671 202 628 202 556 c 0x3c
239 0 m 1xbc
 239 0 193 32 152 64 c 1
 294 223 364 376 364 376 c 1
 332 362 312 341 277 341 c 0
 274 341 271 341 268 341 c 0
 187 341 100 420 100 556 c 0
 100 698 184 805 300 805 c 0
 413 805 500 698 500 556 c 0
 500 547 500 539 500 530 c 0
 500 275 401 203 239 0 c 1xbc
EndSplineSet
Validated: 1
EndChar

StartChar: six
Encoding: 54 54 70
Width: 600
VWidth: 1002
Flags: HW
HStem: 0 130<234 367> 365 96<238 366> 776 29G<280 361>
VStem: 100 101<165 331> 398 101<159 333>
LayerCount: 2
Fore
SplineSet
361 805 m 1
 361 805 407 770 448 738 c 1
 306 579 236 428 236 428 c 1
 268 442 288 457 323 460 c 0
 326 460 329 460 332 460 c 0
 413 460 500 382 500 246 c 0
 500 104 416 0 300 0 c 0
 187 0 100 104 100 246 c 0
 100 255 100 266 100 275 c 0
 100 530 199 602 361 805 c 1
398 246 m 0
 398 315 355 365 300 365 c 0
 245 365 202 315 202 246 c 0
 202 177 248 130 300 130 c 0
 352 130 398 174 398 246 c 0
EndSplineSet
Validated: 1
EndChar

StartChar: numbersign
Encoding: 35 35 71
Width: 600
VWidth: 1002
Flags: HW
HStem: 0 30G<181 259 346 419> 0 30G<181 259 346 419> 281 81<100 181 274 346 427 500> 509 72<100 196 294 358 442 500> 776 29G<207 294 372 442>
VStem: 181 78<0 281> 196 78<362 509> 207 87<582 805> 346 72<0 281> 358 69<356 509> 372 69<582 805>
LayerCount: 2
Fore
SplineSet
358 356 m 1x3a40
 358 509 l 1
 274 509 l 1
 274 359 l 1
 358 356 l 1x3a40
419 281 m 1xb880
 419 0 l 1
 346 0 l 1
 346 281 l 1
 259 281 l 1
 259 0 l 1
 181 0 l 1
 181 281 l 1xbc80
 100 281 l 1
 100 362 l 1
 196 362 l 1
 196 512 l 1xba
 100 512 l 1
 100 582 l 1
 207 582 l 1
 207 805 l 1
 294 805 l 1
 294 582 l 1
 372 582 l 1
 372 805 l 1
 442 805 l 1
 442 582 l 1xb920
 500 582 l 1
 500 509 l 1
 427 509 l 1
 427 353 l 1xb840
 500 353 l 1
 500 281 l 1
 419 281 l 1xb880
EndSplineSet
Validated: 1
EndChar

StartChar: dollar
Encoding: 36 36 72
Width: 600
VWidth: 1002
Flags: HW
HStem: 0 30G<259 340> 0 30G<259 340> 64 98<340 382> 776 29G<259 340>
VStem: 100 110<529 649> 259 81<0 68 185 330 512 640 733 805> 393 107<173 312>
LayerCount: 2
Fore
SplineSet
340 162 m 1x3e
 386 171 393 217 393 240 c 0
 393 249 393 258 393 258 c 2
 393 284 372 307 340 330 c 1
 340 162 l 1x3e
259 657 m 1
 233 648 210 628 210 593 c 0
 210 561 230 535 259 512 c 1
 259 657 l 1
491 561 m 1
 381 561 l 1
 381 561 372 611 340 640 c 1
 340 457 l 1
 418 408 500 351 500 255 c 0
 500 188 462 78 340 64 c 1
 340 0 l 1
 259 0 l 1xbe
 259 67 l 1
 123 102 109 263 109 263 c 1
 228 263 l 1
 228 263 230 214 259 185 c 1
 259 382 l 1
 181 431 100 486 100 573 c 0
 100 654 172 727 259 741 c 1
 259 805 l 1
 340 805 l 1
 340 738 l 1
 462 709 491 561 491 561 c 1
EndSplineSet
Validated: 1
EndChar

StartChar: percent
Encoding: 37 37 73
Width: 600
VWidth: 1002
Flags: HW
HStem: 0 78<331 430> 217 72<330 430> 512 78<174 274> 729 72<173 273>
VStem: 103 61<601 721> 259 61<88 179> 283 61<617 721> 439 61<86 209>
LayerCount: 2
Fore
SplineSet
103 660 m 0xfd
 103 744 156 802 225 802 c 0
 294 802 343 744 343 660 c 0xfb
 343 646 341 630 338 616 c 1
 410 805 l 1
 500 805 l 1
 286 234 l 1
 309 269 340 289 381 289 c 0
 450 289 500 232 500 148 c 0
 500 64 450 0 381 0 c 0
 314 0 259 64 259 148 c 0
 259 160 259 167 262 179 c 1
 196 0 l 1
 100 0 l 1
 320 573 l 1
 297 538 266 512 225 512 c 0
 158 512 103 576 103 660 c 0xfd
283 660 m 0
 283 703 257 729 225 729 c 0
 190 729 164 701 164 660 c 0
 164 619 193 590 225 590 c 0
 257 590 283 617 283 660 c 0
439 148 m 0
 439 191 413 217 381 217 c 0
 346 217 320 189 320 148 c 0xfd
 320 107 349 78 381 78 c 0
 413 78 439 105 439 148 c 0
EndSplineSet
Validated: 1
EndChar

StartChar: question
Encoding: 63 63 74
Width: 600
VWidth: 1002
Flags: HW
HStem: 0 191<235 371> 706 98<232 385>
VStem: 204 194<28 160> 245 107<261 452> 398 101<552 692>
LayerCount: 2
Fore
SplineSet
204 634 m 1xe0
 100 634 l 1
 100 634 176 805 303 805 c 0
 413 805 500 741 500 611 c 0
 500 527 352 469 352 382 c 0
 352 321 355 260 355 260 c 1
 242 260 l 1
 242 260 245 321 245 382 c 0
 245 466 398 547 398 611 c 0xd8
 398 683 372 706 303 706 c 0
 234 706 204 634 204 634 c 1xe0
204 93 m 0xe0
 204 142 254 191 303 191 c 0
 352 191 398 145 398 96 c 0
 398 47 352 0 303 0 c 0
 254 0 204 44 204 93 c 0xe0
EndSplineSet
Validated: 1
EndChar

StartChar: braceleft
Encoding: 123 123 75
Width: 600
VWidth: 1002
Flags: HW
HStem: -43 90<364.5 450.5> 738 104<361.5 450.5>
VStem: 150 110<364 442> 246 96<63 337 471 727>
LayerCount: 2
Fore
SplineSet
378 -43 m 2xd0
 303 -43 255 -26 246 304 c 0xd0
 246 324 150 376 150 399 c 0xe0
 150 434 246 480 246 509 c 0
 258 810 303 842 378 842 c 2
 450 842 l 1
 450 738 l 1
 447 738 444 738 424 738 c 0
 415 738 410 738 404 738 c 0
 363 738 346 723 340 509 c 0xd0
 340 483 260 434 260 399 c 0xe0
 260 373 340 327 340 304 c 0
 346 52 368 46 420 46 c 0
 423 46 421 46 424 46 c 2
 450 46 l 1
 450 -43 l 1
 378 -43 l 2xd0
EndSplineSet
Validated: 1
EndChar

StartChar: braceright
Encoding: 125 125 76
Width: 600
VWidth: 1002
Flags: HW
HStem: -43 90<149.5 235.5> 738 104<149.5 238.5>
VStem: 262 93<70 337 471 720> 340 110<364 442>
LayerCount: 2
Fore
SplineSet
226 -43 m 2xe0
 150 -43 l 1
 150 46 l 1
 176 46 l 2
 179 46 179 46 182 46 c 0
 234 46 256 52 262 304 c 0xe0
 262 327 340 373 340 399 c 0xd0
 340 434 262 483 262 509 c 0
 256 723 237 738 196 738 c 0
 190 738 185 738 176 738 c 0
 156 738 153 738 150 738 c 1
 150 842 l 1
 226 842 l 2
 301 842 343 810 355 509 c 0xe0
 355 480 450 434 450 399 c 0xd0
 450 376 355 324 355 304 c 0
 346 -26 301 -43 226 -43 c 2xe0
EndSplineSet
Validated: 1
EndChar

StartChar: less
Encoding: 60 60 77
Width: 600
VWidth: 1002
Flags: HW
VStem: 100 399
LayerCount: 2
Fore
SplineSet
500 483 m 1
 500 370 l 1
 251 243 l 1
 500 104 l 1
 500 -6 l 1
 100 243 l 1
 500 483 l 1
EndSplineSet
Validated: 1
EndChar

StartChar: greater
Encoding: 62 62 78
Width: 600
VWidth: 1002
Flags: HW
HStem: 454 29G<100 148>
VStem: 100 399
LayerCount: 2
Fore
SplineSet
100 483 m 1
 500 243 l 1
 100 -6 l 1
 100 104 l 1
 352 243 l 1
 100 370 l 1
 100 483 l 1
EndSplineSet
Validated: 1
EndChar

StartChar: period
Encoding: 46 46 79
Width: 600
VWidth: 1002
Flags: HW
HStem: 0 191<234 370>
VStem: 203 194<28 160>
LayerCount: 2
Fore
SplineSet
203 93 m 0
 203 142 253 191 302 191 c 0
 351 191 397 145 397 96 c 0
 397 47 351 0 302 0 c 0
 253 0 203 44 203 93 c 0
EndSplineSet
Validated: 1
EndChar

StartChar: comma
Encoding: 44 44 80
Width: 600
VWidth: 1002
Flags: HW
HStem: -119 310<245.5 289.5>
VStem: 214 194<42 160>
LayerCount: 2
Fore
SplineSet
214 93 m 0
 214 142 263 191 312 191 c 0
 361 191 408 145 408 96 c 0
 408 58 377 17 342 3 c 1
 290 -119 l 1
 192 -119 l 1
 234 41 l 1
 222 55 214 73 214 93 c 0
EndSplineSet
Validated: 1
EndChar

StartChar: quotesingle
Encoding: 39 39 81
Width: 600
VWidth: 1002
Flags: HW
HStem: 504 301<253 351>
VStem: 253 98<504 654>
LayerCount: 2
Fore
SplineSet
232 805 m 1
 368 805 l 1
 351 504 l 5
 253 504 l 1
 232 805 l 1
EndSplineSet
Validated: 1
EndChar

StartChar: quotedbl
Encoding: 34 34 82
Width: 600
VWidth: 1002
Flags: HW
HStem: 504 301<112 228 393 508>
VStem: 92 136<654 805> 112 116<504 654> 372 136<654 805> 393 116<504 654>
LayerCount: 2
Fore
SplineSet
92 805 m 1xc0
 228 805 l 1xc0
 228 504 l 1
 112 504 l 1xa0
 92 805 l 1xc0
372 805 m 1x90
 508 805 l 1x90
 508 504 l 1
 393 504 l 1x88
 372 805 l 1x90
EndSplineSet
Validated: 1
EndChar

StartChar: colon
Encoding: 58 58 83
Width: 600
VWidth: 1002
Flags: HW
HStem: 17 191<233 368> 266 194<234 368>
VStem: 203 194<47 179 296 429>
LayerCount: 2
Fore
SplineSet
203 113 m 0
 203 162 253 208 302 208 c 0
 351 208 397 165 397 116 c 0
 397 67 351 17 302 17 c 0
 253 17 203 64 203 113 c 0
203 362 m 0
 203 411 253 460 302 460 c 0
 351 460 397 414 397 365 c 0
 397 316 351 266 302 266 c 0
 253 266 203 313 203 362 c 0
EndSplineSet
Validated: 1
EndChar

StartChar: semicolon
Encoding: 59 59 84
Width: 600
VWidth: 1002
Flags: HW
HStem: 266 194<245.5 380.5>
VStem: 214 194<59 177 297 429>
LayerCount: 2
Fore
SplineSet
214 362 m 0
 214 411 263 460 312 460 c 0
 361 460 408 414 408 365 c 0
 408 316 365 266 316 266 c 0
 267 266 214 313 214 362 c 0
214 110 m 0
 214 159 263 208 312 208 c 0
 361 208 408 162 408 113 c 0
 408 75 377 37 342 23 c 1
 290 -101 l 1
 192 -98 l 1
 234 58 l 1
 222 72 214 90 214 110 c 0
EndSplineSet
Validated: 1
EndChar

StartChar: plus
Encoding: 43 43 85
Width: 600
VWidth: 1002
Flags: HW
HStem: 287 107<100 248 355 500>
VStem: 248 107<87 287 394 570>
LayerCount: 2
Fore
SplineSet
248 570 m 1
 355 570 l 1
 355 394 l 1
 500 394 l 1
 500 287 l 1
 355 287 l 1
 355 87 l 1
 248 87 l 1
 248 287 l 1
 100 287 l 1
 100 394 l 1
 248 394 l 1
 248 570 l 1
EndSplineSet
Validated: 1
EndChar

StartChar: equal
Encoding: 61 61 86
Width: 600
VWidth: 1002
Flags: HW
HStem: 174 116<100 500> 399 113<100 500>
VStem: 100 399<174 289 399 512>
LayerCount: 2
Fore
SplineSet
100 512 m 1
 500 512 l 1
 500 399 l 1
 100 399 l 1
 100 512 l 1
100 289 m 1
 500 289 l 1
 500 174 l 1
 100 174 l 1
 100 289 l 1
EndSplineSet
Validated: 1
EndChar

StartChar: hyphen
Encoding: 45 45 87
Width: 600
VWidth: 1002
Flags: HW
HStem: 287 107<100 500>
VStem: 100 399<287 394>
LayerCount: 2
Fore
SplineSet
500 394 m 1
 500 287 l 1
 100 287 l 1
 100 394 l 1
 500 394 l 1
EndSplineSet
Validated: 1
EndChar

StartChar: underscore
Encoding: 95 95 88
Width: 600
VWidth: 1002
Flags: HW
HStem: -107 107<51 549>
LayerCount: 2
Fore
SplineSet
549 0 m 1
 549 -107 l 1
 51 -107 l 1
 51 0 l 1
 549 0 l 1
EndSplineSet
Validated: 1
EndChar

StartChar: asterisk
Encoding: 42 42 89
Width: 600
VWidth: 1002
Flags: HW
VStem: 271 55<87 289 399 570>
LayerCount: 2
Fore
SplineSet
271 570 m 1
 326 570 l 1
 326 394 l 1
 462 506 l 1
 500 451 l 1
 361 344 l 1
 494 263 l 1
 450 205 l 1
 326 292 l 1
 326 87 l 1
 271 87 l 1
 271 289 l 1
 147 197 l 1
 103 252 l 1
 236 344 l 1
 100 440 l 1
 138 495 l 1
 271 399 l 1
 271 570 l 1
EndSplineSet
Validated: 1
EndChar

StartChar: asciicircum
Encoding: 94 94 90
Width: 600
VWidth: 1002
Flags: W
HStem: 472 333
VStem: 100 400
LayerCount: 2
Fore
SplineSet
100 472 m 1
 297 805 l 1
 500 472 l 1
 393 472 l 1
 297 642 l 1
 213 472 l 1
 100 472 l 1
EndSplineSet
Validated: 1
EndChar

StartChar: ampersand
Encoding: 38 38 91
Width: 600
VWidth: 1002
Flags: HW
HStem: 0 101<206 280> 703 101<215 308>
VStem: 100 90<108 343 555 679> 323 98<548 694> 398 93<0 116>
LayerCount: 2
Fore
SplineSet
332 243 m 1xe0
 332 243 285 339 259 388 c 1
 218 345 190 313 190 232 c 0
 190 174 201 101 239 101 c 0
 277 101 309 182 332 243 c 1xe0
430 211 m 1
 442 168 491 26 491 0 c 1
 398 0 l 1xe8
 398 14 378 87 372 122 c 1
 343 47 326 0 257 0 c 0
 150 0 100 104 100 234 c 0
 100 341 135 408 187 460 c 1
 141 495 100 547 100 622 c 0
 100 729 172 805 265 805 c 0
 358 805 422 727 422 637 c 0
 422 550 358 484 323 449 c 1xf0
 358 391 352 399 387 324 c 1
 410 356 442 446 442 446 c 1
 500 365 l 1
 500 365 444 237 430 211 c 1
323 616 m 0xf0
 323 659 300 703 265 703 c 0
 230 703 196 657 196 614 c 0
 196 571 227 547 262 521 c 1
 294 550 323 570 323 616 c 0xf0
EndSplineSet
Validated: 1
EndChar

StartChar: at
Encoding: 64 64 92
Width: 600
VWidth: 1002
Flags: HW
HStem: 0 81<282 469> 156 75<321 403> 561 72<317 404> 729 75<292 391>
VStem: 100 67<244 547> 233 69<243 552> 419 81<243 548>
LayerCount: 2
Fore
SplineSet
361 561 m 0
 306 561 300 477 300 425 c 0
 300 411 303 400 303 394 c 0
 303 391 303 388 303 385 c 0
 303 347 303 232 361 232 c 0
 410 232 419 301 419 350 c 0
 419 373 416 388 416 394 c 0
 416 403 419 420 419 437 c 0
 419 489 410 561 361 561 c 0
419 608 m 1
 413 646 390 729 361 729 c 0
 263 729 167 533 167 394 c 0
 167 258 245 81 364 81 c 0
 396 81 442 87 491 119 c 1
 497 124 l 1
 497 52 l 1
 491 46 482 31 430 17 c 0
 395 8 378 0 364 0 c 0
 205 0 100 267 100 394 c 0
 100 565 202 805 361 805 c 0
 410 805 427 779 450 738 c 0
 496 657 500 481 500 417 c 2
 500 394 l 2
 500 322 468 156 361 156 c 0
 271 156 233 264 233 394 c 0
 233 530 268 634 361 634 c 0
 399 634 390 628 407 614 c 0
 410 611 416 611 419 608 c 1
EndSplineSet
Validated: 1
EndChar

StartChar: asciitilde
Encoding: 126 126 93
Width: 600
VWidth: 1002
Flags: HW
HStem: 226 104<327 462> 324 107<138 276>
VStem: 100 399
LayerCount: 2
Fore
SplineSet
500 399 m 1xa0
 500 292 l 1
 500 292 442 226 401 226 c 0xa0
 320 226 283 324 202 324 c 0
 159 324 100 255 100 255 c 1
 100 362 l 1
 100 362 159 431 202 431 c 0x60
 283 431 320 330 401 330 c 0
 442 330 500 399 500 399 c 1xa0
EndSplineSet
Validated: 1
EndChar

StartChar: grave
Encoding: 96 96 94
Width: 600
VWidth: 1002
Flags: HW
HStem: 504 301<303.5 340.5>
VStem: 204 191
LayerCount: 2
Fore
SplineSet
204 805 m 1
 340 805 l 1
 395 504 l 1
 304 504 l 1
 204 805 l 1
EndSplineSet
Validated: 1
EndChar

StartChar: exclamdown
Encoding: 161 161 159
Width: 600
VWidth: 1002
Flags: HW
HStem: 0 30G<244 360> 0 30G<244 360> 614 191<233 370>
VStem: 203 194<643 775> 244 116<0 530>
LayerCount: 2
Fore
SplineSet
244 0 m 1xa8
 244 530 l 1
 360 530 l 1
 360 0 l 1
 244 0 l 1xa8
203 709 m 0x30
 203 758 253 805 302 805 c 0
 351 805 397 758 397 709 c 0
 397 660 351 614 302 614 c 0
 253 614 203 660 203 709 c 0x30
EndSplineSet
Validated: 1
EndChar

StartChar: brokenbar
Encoding: 166 166 164
Width: 600
VWidth: 1002
Flags: HW
VStem: 256 90<-104 391 492 906>
LayerCount: 2
Fore
SplineSet
344 391 m 1
 344 -104 l 1
 256 -104 l 1
 256 391 l 1
 344 391 l 1
344 906 m 1
 344 492 l 1
 256 492 l 1
 256 906 l 1
 344 906 l 1
EndSplineSet
Validated: 1
EndChar

StartChar: dieresis
Encoding: 168 168 166
Width: 600
VWidth: 1002
Flags: HW
HStem: 590 113<166 267 334 434>
VStem: 158 116<599 695> 326 116<598 699>
LayerCount: 2
Fore
SplineSet
158 648 m 0
 158 677 190 703 219 703 c 0
 248 703 274 677 274 648 c 0
 274 619 248 590 219 590 c 0
 190 590 158 619 158 648 c 0
326 648 m 0
 326 677 355 706 384 706 c 0
 413 706 442 677 442 648 c 0
 442 619 413 590 384 590 c 0
 355 590 326 619 326 648 c 0
EndSplineSet
Validated: 1
EndChar

StartChar: degree
Encoding: 176 176 173
Width: 600
VWidth: 1002
Flags: HW
HStem: 648 75<241 360> 874 75<241 360>
VStem: 154 72<739 859> 374 72<736 861>
LayerCount: 2
Fore
SplineSet
154 799 m 0
 154 883 221 949 302 949 c 0
 383 949 446 883 446 799 c 0
 446 715 383 648 302 648 c 0
 221 648 154 715 154 799 c 0
227 799 m 0
 227 756 261 724 302 724 c 0
 343 724 374 756 374 799 c 0
 374 842 343 874 302 874 c 0
 261 874 227 842 227 799 c 0
EndSplineSet
Validated: 1
EndChar

StartChar: plusminus
Encoding: 177 177 174
Width: 600
VWidth: 1002
Flags: HW
HStem: 130 113<100 500> 469 104<100 248 355 500>
VStem: 248 107<344 469 573 700>
LayerCount: 2
Fore
SplineSet
248 700 m 1
 355 700 l 1
 355 573 l 1
 500 573 l 1
 500 469 l 1
 355 469 l 1
 355 344 l 1
 248 344 l 1
 248 469 l 1
 100 469 l 1
 100 573 l 1
 248 573 l 1
 248 700 l 1
100 243 m 1
 500 243 l 1
 500 130 l 1
 100 130 l 1
 100 243 l 1
EndSplineSet
Validated: 1
EndChar

StartChar: acute
Encoding: 180 180 175
Width: 600
VWidth: 1002
Flags: HW
HStem: 587 217<265 294>
VStem: 199 203
LayerCount: 2
Fore
SplineSet
265 805 m 1
 401 805 l 1
 294 587 l 1
 199 587 l 1
 265 805 l 1
EndSplineSet
Validated: 1
EndChar

StartChar: cedilla
Encoding: 184 184 179
Width: 600
VWidth: 1002
Flags: HW
HStem: -205 41<260 344> -93 98<300 330>
VStem: 346 43<-162 -111>
LayerCount: 2
Fore
SplineSet
390 -133 m 0
 390 -153 378 -205 297 -205 c 0
 268 -205 242 -188 225 -174 c 0
 222 -171 219 -168 210 -159 c 1
 242 -127 l 1
 251 -136 251 -136 257 -142 c 0
 277 -159 283 -165 297 -165 c 0
 323 -165 346 -162 346 -133 c 0
 346 -119 303 -99 289 -93 c 0
 283 -90 277 -87 277 -81 c 2
 300 6 l 1
 303 6 l 1
 341 6 l 1
 346 6 l 1
 329 -64 l 1
 346 -73 390 -98 390 -133 c 0
EndSplineSet
Validated: 1
EndChar

StartChar: questiondown
Encoding: 191 191 183
Width: 600
VWidth: 1002
Flags: HW
HStem: 0 98<218 369> 614 191<232 368>
VStem: 100 104<112 252> 204 194<643 774> 248 107<353 544>
LayerCount: 2
Fore
SplineSet
395 168 m 1xe8
 500 168 l 1
 500 168 424 0 297 0 c 0
 187 0 100 64 100 194 c 0
 100 278 248 336 248 423 c 0
 248 484 248 544 248 544 c 1
 358 544 l 1
 358 544 355 484 355 423 c 0
 355 339 204 258 204 194 c 0
 204 122 228 98 297 98 c 0
 366 98 395 168 395 168 c 1xe8
398 709 m 0xd0
 398 660 349 614 300 614 c 0
 251 614 204 660 204 709 c 0
 204 758 248 805 297 805 c 0
 346 805 398 758 398 709 c 0xd0
EndSplineSet
Validated: 1
EndChar

StartChar: diaeresiscomb
Encoding: 256 776 248
Width: 600
VWidth: 1002
Flags: HW
HStem: 590 113<166 267 334 434>
VStem: 158 116<599 695> 326 116<598 699>
LayerCount: 2
Fore
SplineSet
158 648 m 0
 158 677 190 703 219 703 c 0
 248 703 274 677 274 648 c 0
 274 619 248 590 219 590 c 0
 190 590 158 619 158 648 c 0
326 648 m 0
 326 677 355 706 384 706 c 0
 413 706 442 677 442 648 c 0
 442 619 413 590 384 590 c 0
 355 590 326 619 326 648 c 0
EndSplineSet
Validated: 1
EndChar

StartChar: dotlessi
Encoding: 257 305 249
Width: 600
VWidth: 1002
Flags: HW
HStem: 0 101<346 500> 359 101<100 251>
VStem: 245 255<4 101> 251 98<101 359>
LayerCount: 2
Fore
SplineSet
100 359 m 1xd0
 100 460 l 1
 300 460 l 2
 329 460 349 437 349 408 c 0xd0
 349 182 346 115 346 101 c 1
 500 101 l 1
 500 0 l 1
 297 0 l 2
 268 0 245 23 245 52 c 2xe0
 251 359 l 1
 100 359 l 1xd0
EndSplineSet
Validated: 1
EndChar

StartChar: acutecomb
Encoding: 258 769 250
Width: 600
VWidth: 1002
Flags: HW
HStem: 587 217<265 294>
VStem: 199 203
LayerCount: 2
Fore
SplineSet
265 805 m 1
 401 805 l 1
 294 587 l 1
 199 587 l 1
 265 805 l 1
EndSplineSet
Validated: 1
EndChar

StartChar: gravecomb
Encoding: 259 768 253
Width: 600
VWidth: 1002
Flags: HW
HStem: 587 217<309 335>
VStem: 199 203
LayerCount: 2
Fore
SplineSet
335 805 m 1
 401 587 l 1
 309 587 l 1
 199 805 l 1
 335 805 l 1
EndSplineSet
Validated: 1
EndChar

StartChar: fraction
Encoding: 260 8260 254
Width: 600
VWidth: 1002
Flags: HW
HStem: 0 30G<100 232> 0 30G<100 232> 776 29G<374 500>
VStem: 100 399
LayerCount: 2
Fore
SplineSet
500 805 m 1xb0
 222 0 l 1
 100 0 l 1
 384 805 l 1
 500 805 l 1xb0
EndSplineSet
Validated: 1
EndChar

StartChar: Scaron
Encoding: 160 352 255
Width: 600
VWidth: 0
Flags: HW
HStem: 0 116<264.249 372.723> 709 96<229.529 339.998> 885 333
VStem: 97 400 100 110<555.574 690.877> 393 107<129.437 292.016>
LayerCount: 2
Fore
SplineSet
97 1218 m 1xf0
 210 1218 l 1xe8
 294 1048 l 1
 390 1218 l 1
 497 1218 l 1xf0
 294 885 l 1
 97 1218 l 1xf0
EndSplineSet
Refer: 31 83 N 1 0 0 1 0 0 3
Validated: 1
EndChar

StartChar: circumflexcmb
Encoding: 261 770 257
Width: 600
VWidth: 1002
Flags: HW
HStem: 472 194
VStem: 100 399
LayerCount: 2
Fore
SplineSet
100 472 m 1
 297 666 l 1
 500 472 l 1
 393 472 l 1
 297 550 l 1
 213 472 l 1
 100 472 l 1
EndSplineSet
Validated: 1
EndChar

StartChar: tildecomb
Encoding: 262 771 258
Width: 600
VWidth: 1002
Flags: HW
HStem: 226 104<327 462> 324 107<138 276>
VStem: 100 399
LayerCount: 2
Fore
SplineSet
500 399 m 1xa0
 500 292 l 1
 500 292 442 226 401 226 c 0xa0
 320 226 283 324 202 324 c 0
 159 324 100 255 100 255 c 1
 100 362 l 1
 100 362 159 431 202 431 c 0x60
 283 431 320 330 401 330 c 0
 442 330 500 399 500 399 c 1xa0
EndSplineSet
Validated: 1
EndChar

StartChar: cedillacmb
Encoding: 263 807 259
Width: 600
VWidth: 1002
Flags: HW
HStem: -205 41<260 344> -93 93<300 330>
VStem: 346 43<-162 -111>
LayerCount: 2
Fore
SplineSet
390 -133 m 0
 390 -153 378 -205 297 -205 c 0
 268 -205 242 -188 225 -174 c 0
 222 -171 219 -168 210 -159 c 1
 242 -127 l 1
 251 -136 251 -136 257 -142 c 0
 277 -159 283 -165 297 -165 c 0
 323 -165 346 -162 346 -133 c 0
 346 -119 303 -99 289 -93 c 0
 283 -90 277 -87 277 -81 c 2
 300 0 l 1
 303 0 l 1
 341 0 l 1
 346 0 l 1
 329 -64 l 1
 346 -73 390 -98 390 -133 c 0
EndSplineSet
Validated: 1
EndChar

StartChar: ringcmb
Encoding: 264 778 260
Width: 600
VWidth: 1002
Flags: HW
HStem: 648 75<242 361> 874 75<242 361>
VStem: 152 75<736 861> 375 72<739 859>
LayerCount: 2
Fore
SplineSet
152 799 m 0
 152 883 219 949 300 949 c 0
 381 949 448 883 448 799 c 0
 448 715 381 648 300 648 c 0
 219 648 152 715 152 799 c 0
228 799 m 0
 228 756 259 724 300 724 c 0
 341 724 375 756 375 799 c 0
 375 842 341 874 300 874 c 0
 259 874 228 842 228 799 c 0
EndSplineSet
Validated: 1
EndChar

StartChar: acutedblnosp
Encoding: 265 779 261
Width: 600
VWidth: 1002
Flags: HW
HStem: 587 217<376.5 399.5 596.5 622.5>
VStem: 88 425
LayerCount: 2
Fore
SplineSet
156 805 m 1
 290 805 l 1
 180 587 l 1
 88 587 l 1
 156 805 l 1
376 805 m 1
 513 805 l 1
 402 587 l 1
 310 587 l 1
 376 805 l 1
EndSplineSet
Validated: 1
EndChar
